# xmcd CD database file
#
# Track frame offsets:
#	150
#	17097
#	39780
#	56677
#
# Disc length: 1056 seconds
#
# Revision: 0
# Processed by: cddbd v1.5PL3 Copyright (c) Steve Scherf et al.
# Submitted via: CDex 1.51
#
DISCID=26041e04
DTITLE=myco〜CML - クリスマスにくちづけを
DYEAR=2003
DGENRE=JPop
TTITLE0=クリスマスにくちづけを
TTITLE1=Confession
TTITLE2=クリスマスにくちづけを (Instrumental)
TTITLE3=Confession (Instrumental)
EXTD=YEAR: 2003
EXTT0=
EXTT1=
EXTT2=
EXTT3=
PLAYORDER=
